<?xml version="1.0"?>
<svg xmlns="http://www.w3.org/2000/svg" viewBox="0 0 512 512" width="512px" height="512px" class=""><g><g id="Out_line" data-name="Out line"><path d="M455.36816,420.92529A52.742,52.742,0,0,0,464,392H448a36.74672,36.74672,0,0,1-12.15186,27.32837l-32.74365-22.92114a73.36508,73.36508,0,0,0-11.20923-6.44361l-40.45654-42.08789,6.21851-6.2185a8.00114,8.00114,0,0,0-1.00684-12.167L304,291.88281V251.08105a71.606,71.606,0,0,0-29.23047-57.73584l3.47754-4.34716a8.00057,8.00057,0,0,0-1.59766-11.50782l-90.45019-64.60742A51.9634,51.9634,0,0,0,168,104.6145v-.13794a50.02551,50.02551,0,0,0-64.07715-53.60547l-13.644,4.09327-1.229-1.229A38.1058,38.1058,0,0,0,24,80.68066V87.0166l-7.76074,31.043A8,8,0,0,0,24,128h9.75391l5.543,22.17285-4.418,3.68164a7.999,7.999,0,0,0,3.18066,13.90625l30.30664,7.57715,30.376,24.30127-47.3916,33.85107c-.05079.03614-.09546.07886-.14527.11622l-.00512-.00684L34.69629,245.97754A24.80027,24.80027,0,0,0,64.45605,285.6582l19.90967-14.93213,65.07373-36.1521,50.12207,33.415-5.18164,51.81861a65.66948,65.66948,0,0,0,57.84253,71.77l42.91724,43.83984a57.53164,57.53164,0,0,0-.40112,13.58887L23.0918,480.05176l1.8164,15.89648,280-32-.00073-.00659c.16089-.01831.32178-.03516.48315-.06372l135.42554-23.89868A56.0547,56.0547,0,0,0,496,384H480A40.05947,40.05947,0,0,1,455.36816,420.92529ZM363.228,383.22852a72.65735,72.65735,0,0,0-38.01392,9.57251l-9.69116-9.0105,24.59961-24.59912ZM176.89941,125.90234l83.57618,59.69727L206.335,253.27539l-45.85229-30.5686,13.67944-61.5564a35.42352,35.42352,0,0,0-.97363-18.88379l-.56543-1.69824A35.2567,35.2567,0,0,0,168,131.44678V121.2749A35.96044,35.96044,0,0,1,176.89941,125.90234Zm-68.3789-59.706a34.02553,34.02553,0,0,1,43.541,36.81152A8.02,8.02,0,0,0,152,104v14.83276a35.18569,35.18569,0,0,0-6.03711-1.79858l-6.38477-1.27734a35.30976,35.30976,0,0,0-36.42187,15.08691c-.15308.22949-.29468.46484-.44214.69727l-5.3479-10.69629L118.40039,92.7998a8.00114,8.00114,0,0,0-.74316-10.457l-14.5293-14.52929ZM40,80.68066A22.10507,22.10507,0,0,1,77.73535,65.0498l4.60742,4.60743L101.43652,88.751l-4.16845,5.5581L40,81.583Zm7.76074,37.37891A7.99866,7.99866,0,0,0,40,112H34.24609l3.625-14.5,48.86036,10.85791-4.57251,6.09668L52.94531,138.79907Zm26.17969,42.17969-16.71582-4.17969,28.137-23.44775L97.86328,157.616l3.35986,23.51709L76.99805,161.75293A7.98926,7.98926,0,0,0,73.94043,160.23926ZM54.85645,272.8584a8.84458,8.84458,0,0,1-11.502-.81836,8.79935,8.79935,0,0,1,.94141-13.26172L55.249,250.56348l12.57129,12.57129Zm26.5332-18.78223L68.335,241.02051l48.31543-34.51074a8.00271,8.00271,0,0,0,3.26953-7.64161l-6.51855-45.626a19.42516,19.42516,0,0,1,23.03906-21.7959l6.38477,1.27734A19.46357,19.46357,0,0,1,157.44238,145.626l.56641,1.69824a19.42212,19.42212,0,0,1,.53418,10.35547L144.9707,218.75391ZM220.93555,357.3623a49.38573,49.38573,0,0,1-10.63575-35.96289l5.42457-54.248L264.7605,205.8562A55.60551,55.60551,0,0,1,288,251.08105V296a7.99969,7.99969,0,0,0,3.35059,6.50977L339.665,337.02051l-36.82227,36.82226-33.373-20.85839A55.88037,55.88037,0,0,1,243.71289,313.416l-3.793-26.54786a8.00071,8.00071,0,0,0-15.9209,1.11914,8.126,8.126,0,0,0,.08106,1.14454l3.793,26.54687a71.85444,71.85444,0,0,0,33.11621,50.874L276.10547,376H259.71191A49.41212,49.41212,0,0,1,220.93555,357.3623ZM275.02734,392H300.8562l11.26441,10.47339a57.53516,57.53516,0,0,0-11.51539,15.65454Zm35.5752,54.71094a41.58,41.58,0,0,1,16.585-36.10156,56.75754,56.75754,0,0,1,66.74121-1.09473l25.66113,17.96387Z" data-original="#000000" class="active-path" data-old_color="#000000" fill="#FFFFFF"/><rect x="448" y="360" width="16" height="16" data-original="#000000" class="active-path" data-old_color="#000000" fill="#FFFFFF"/><rect x="480" y="352" width="16" height="16" data-original="#000000" class="active-path" data-old_color="#000000" fill="#FFFFFF"/><path d="M416,352a16.01833,16.01833,0,0,1-16,16v16a32.03667,32.03667,0,0,0,32-32V336H416Z" data-original="#000000" class="active-path" data-old_color="#000000" fill="#FFFFFF"/><rect x="416" y="304" width="16" height="16" data-original="#000000" class="active-path" data-old_color="#000000" fill="#FFFFFF"/><rect x="464" y="320" width="16" height="16" data-original="#000000" class="active-path" data-old_color="#000000" fill="#FFFFFF"/><path d="M236.68628,46.62744,232.458,76.22852,210.34277,98.34277l11.31446,11.31446,24-24a8.00789,8.00789,0,0,0,2.26269-4.52539l5.73731-40.16114L308.68555,96l-42.34278,42.34277,11.31446,11.31446,77.31591-77.3169-9.90771,49.53858-19.5957,6.53125A8.00026,8.00026,0,0,0,320,136v25.22266l-25.31543,4.21875,2.63086,15.7832,32-5.333A8.0005,8.0005,0,0,0,336,168V141.76562l18.53027-6.17578a8.00351,8.00351,0,0,0,5.31446-6.0205l13.3208-66.6045,39.06836,33.48682-33.89112,33.89111a8.002,8.002,0,0,0-2.10351,7.59766l8,32a8.0005,8.0005,0,0,0,10.91211,5.41309l56-24A8.00075,8.00075,0,0,0,456,144V88.64478l27.00293,21.60229,9.99414-12.49414-40-32-.00488.00635a7.96614,7.96614,0,0,0-10.64942.58349L423.58105,85.10449l-50.375-43.17871a8.00078,8.00078,0,0,0-10.86328.417L320,84.68555,253.65723,18.34277a8.003,8.003,0,0,0-11.31446,0l-56,56,11.31446,11.31446ZM440,138.72461l-42.51758,18.22168-4.623-18.49219L440,91.31348Z" data-original="#000000" class="active-path" data-old_color="#000000" fill="#FFFFFF"/></g></g> </svg>
